<?xml version="1.0" standalone="no"?>
<!DOCTYPE svg PUBLIC "-//W3C//DTD SVG 20010904//EN"
 "http://www.w3.org/TR/2001/REC-SVG-20010904/DTD/svg10.dtd">
<svg version="1.0" xmlns="http://www.w3.org/2000/svg"
 width="496.000000pt" height="512.000000pt" viewBox="0 0 496.000000 512.000000"
 preserveAspectRatio="xMidYMid meet">

<g transform="translate(0.000000,512.000000) scale(0.100000,-0.100000)"
fill="#000000" stroke="none">
<path d="M2410 4263 c-28 -25 -34 -38 -38 -84 -4 -51 -1 -58 42 -121 25 -37
46 -70 46 -73 0 -3 -21 10 -46 29 -74 57 -132 59 -186 8 -34 -31 -44 -78 -28
-126 15 -48 57 -76 112 -76 42 0 62 9 128 59 29 21 32 22 27 5 -3 -10 -11 -38
-17 -62 -6 -23 -20 -63 -30 -87 l-19 -45 29 0 c29 0 30 -1 30 -49 0 -45 -2
-49 -27 -54 -68 -15 -122 -71 -144 -149 l-10 -38 -210 0 -210 0 -75 57 c-59
44 -77 53 -87 44 -12 -13 -11 -15 68 -77 24 -19 26 -24 12 -24 -10 0 -52 25
-93 56 -59 44 -78 54 -87 45 -12 -13 -10 -15 68 -77 25 -20 27 -24 11 -24 -11
0 -53 25 -93 56 -58 45 -77 54 -86 45 -9 -10 -4 -19 23 -39 19 -15 47 -38 63
-52 l29 -25 -61 -48 c-34 -26 -61 -51 -61 -57 0 -22 34 -8 97 40 81 62 131 70
54 10 -28 -22 -51 -45 -51 -50 0 -22 34 -8 97 40 80 61 119 67 51 9 -27 -23
-48 -45 -48 -50 0 -22 40 -5 99 41 l64 50 216 -2 215 -3 10 -39 c12 -52 82
-122 130 -131 l36 -7 0 -89 0 -89 -735 0 -735 0 0 -43 c0 -39 3 -44 33 -55 38
-14 67 -57 67 -100 0 -37 -40 -87 -75 -96 -21 -5 -25 -12 -25 -46 0 -34 3 -40
21 -40 11 0 34 -13 50 -29 41 -41 41 -101 0 -142 -16 -16 -39 -29 -50 -29 -18
0 -21 -6 -21 -40 0 -34 4 -41 25 -46 35 -9 75 -59 75 -95 0 -47 -26 -86 -65
-100 -32 -12 -35 -17 -35 -51 0 -28 4 -38 16 -38 9 0 31 -15 50 -34 26 -26 34
-42 34 -69 0 -42 -37 -92 -75 -101 -21 -5 -25 -12 -25 -46 0 -34 3 -40 21 -40
11 0 34 -13 50 -29 53 -53 34 -137 -37 -167 -31 -13 -34 -18 -34 -54 l0 -40
735 0 735 0 0 -88 0 -89 -37 -24 c-44 -28 -70 -88 -59 -134 4 -15 22 -43 41
-62 28 -28 40 -33 80 -33 40 0 52 5 80 33 44 44 54 94 28 144 -11 22 -33 44
-51 53 l-32 15 0 93 0 92 730 0 730 0 0 50 c0 44 -3 50 -21 50 -11 0 -34 13
-50 29 -23 23 -29 38 -29 71 0 33 6 48 29 71 16 16 39 29 50 29 18 0 21 6 21
40 0 34 -4 41 -25 46 -14 3 -36 20 -50 36 -49 58 -23 146 49 164 22 5 26 12
26 44 0 32 -4 39 -26 44 -72 18 -98 106 -49 164 14 16 36 33 50 36 21 5 25 12
25 46 0 34 -3 40 -21 40 -11 0 -34 13 -50 29 -41 41 -41 101 0 142 16 16 39
29 50 29 18 0 21 6 21 40 0 30 -4 40 -16 40 -9 0 -31 15 -50 34 -27 27 -34 42
-34 74 0 45 32 87 74 98 22 5 26 12 26 45 l0 39 -730 0 -730 0 0 88 1 87 51
25 c57 27 82 56 103 116 l13 39 182 3 181 2 56 -44 55 -43 154 50 c84 28 151
53 149 55 -3 3 -294 101 -301 102 -1 0 -28 -20 -60 -45 l-57 -45 -178 0 -178
0 -11 38 c-16 63 -51 105 -107 132 -52 25 -52 25 -53 73 0 46 1 47 30 47 l29
0 -19 45 c-20 46 -52 157 -47 162 2 1 27 -15 56 -37 45 -34 61 -40 101 -40 57
0 93 25 110 76 16 48 6 95 -28 126 -54 51 -112 49 -186 -8 -53 -41 -59 -33
-15 22 69 87 79 156 31 213 -23 28 -36 34 -78 38 -46 5 -55 2 -84 -24z m59
-802 c9 -6 22 -6 34 0 27 15 67 -14 67 -47 0 -26 -66 -104 -88 -104 -6 0 -27
15 -46 34 -28 26 -36 41 -36 69 0 47 34 70 69 48z m1241 -576 l0 -25 -1240 0
-1240 0 0 25 0 25 1240 0 1240 0 0 -25z m-1342 -279 c3 -12 -5 -16 -32 -16
-33 0 -36 -2 -36 -30 0 -28 3 -30 36 -30 28 0 35 -3 32 -17 -2 -12 -14 -19
-36 -21 -28 -3 -32 -7 -32 -33 0 -27 3 -29 36 -29 28 0 35 -3 32 -17 -2 -14
-15 -19 -51 -21 l-47 -3 0 118 0 118 47 -1 c36 -1 49 -6 51 -18z m163 -2 c12
-30 10 -44 -6 -44 -8 0 -15 7 -15 15 0 10 -10 15 -30 15 -27 0 -30 -3 -30 -30
0 -28 2 -30 39 -30 36 0 39 -2 45 -35 4 -19 4 -51 0 -70 -6 -34 -7 -35 -55
-35 -42 0 -49 3 -49 20 0 11 -4 20 -10 20 -5 0 -10 7 -10 15 0 8 9 15 20 15
11 0 20 -7 20 -15 0 -10 10 -15 30 -15 27 0 30 3 30 30 0 28 -2 30 -40 30 -33
0 -40 3 -40 20 0 11 -4 20 -10 20 -5 0 -10 14 -10 30 0 17 5 30 10 30 6 0 10
8 10 18 0 26 91 22 101 -4z m157 2 c2 -9 8 -16 13 -16 5 0 9 -7 9 -15 0 -8 -9
-15 -20 -15 -11 0 -20 7 -20 15 0 8 -9 15 -20 15 -11 0 -20 -7 -20 -15 0 -8
-4 -15 -10 -15 -15 0 -12 -92 4 -112 7 -10 21 -18 30 -18 21 0 22 46 1 67 -20
20 -10 33 24 33 27 0 28 -2 28 -50 0 -27 -4 -50 -8 -50 -5 0 -9 -9 -9 -20 0
-17 -7 -20 -38 -20 -34 0 -40 4 -52 35 -8 19 -17 35 -21 35 -3 0 -6 23 -6 50
0 28 4 50 8 50 5 0 9 7 9 15 0 8 5 15 10 15 6 0 10 8 10 18 0 24 73 23 78 -2z
m-568 -531 c0 -8 -7 -15 -15 -15 -12 0 -15 -15 -15 -79 0 -61 3 -80 15 -85 8
-3 15 -12 15 -21 0 -11 -11 -15 -39 -15 -45 0 -62 17 -38 35 24 17 25 165 2
165 -8 0 -15 7 -15 15 0 11 12 15 45 15 33 0 45 -4 45 -15z m300 -79 c0 -74 3
-95 15 -100 8 -3 15 -12 15 -21 0 -11 -12 -15 -50 -15 -43 0 -50 3 -50 20 0
11 7 20 15 20 12 0 15 16 15 80 0 47 -4 80 -10 80 -5 0 -10 7 -10 15 0 10 10
15 30 15 l30 0 0 -94z m530 -21 c0 -106 -2 -115 -19 -115 -21 0 -28 29 -26 95
1 22 2 61 3 88 2 40 5 47 22 47 19 0 20 -7 20 -115z m-662 38 c-2 -12 -14 -19
-36 -21 -40 -4 -45 -32 -4 -32 35 0 52 -33 38 -72 -9 -25 -16 -28 -53 -28 -36
0 -43 3 -43 20 0 16 7 20 35 20 46 0 49 27 3 32 -20 2 -32 8 -30 16 1 6 -2 12
-8 12 -5 0 -10 9 -10 20 0 11 5 20 10 20 6 0 9 3 9 8 -3 19 4 22 47 22 38 0
45 -3 42 -17z m302 2 c0 -8 5 -15 10 -15 6 0 10 -22 10 -48 0 -26 5 -53 11
-59 6 -6 8 -16 5 -22 -11 -17 -36 -13 -37 7 -1 16 -2 16 -6 0 -7 -29 -65 -24
-80 7 -17 37 3 75 40 75 17 0 27 5 27 15 0 9 -9 15 -25 15 -18 0 -25 5 -25 20
0 16 7 20 35 20 24 0 35 -5 35 -15z m101 -2 c1 -17 2 -17 6 0 6 22 73 25 73 2
0 -8 5 -15 10 -15 6 0 10 -30 10 -70 0 -63 -2 -70 -20 -70 -18 0 -20 7 -20 65
0 62 -1 65 -24 65 -27 0 -36 -21 -36 -88 0 -36 -3 -43 -17 -40 -15 3 -18 15
-19 78 0 41 2 78 4 83 7 14 32 7 33 -10z m209 1 c0 -9 -8 -18 -18 -21 -10 -2
-24 -14 -31 -25 -16 -26 1 -63 31 -71 26 -7 18 -31 -10 -35 -14 -2 -22 2 -22
11 0 9 -5 17 -12 19 -6 2 -11 25 -11 53 0 28 5 51 11 53 7 2 12 10 12 18 0 8
10 14 25 14 16 0 25 -6 25 -16z m810 -409 l0 -25 -1240 0 -1240 0 0 25 0 25
1240 0 1240 0 0 -25z"/>
<path d="M2530 1915 c0 -8 9 -15 20 -15 11 0 20 7 20 15 0 8 -9 15 -20 15 -11
0 -20 -7 -20 -15z"/>
</g>
</svg>
